# xmcd CD database file generated by Grip 3.1.4
# 
# Track frame offsets:
#       150
#       20837
#       45675
#       64332
#       77857
#       97390
#       123125
#       141007
#       162457
#       180865
#       207880
#       234230
# 
# Disc length: 3273 seconds
# 
# Revision: 4
# Processed by: cddbd v1.5.1PL0 Copyright (c) Steve Scherf et al.
# Submitted via: Grip 3.1.4
# 
DISCID=a30cc70c
DTITLE=Johnny Winter - The Winter Of '88
DYEAR=1988
DGENRE=Blues
TTITLE0=Close To Me
TTITLE1=Rain
TTITLE2=Stranger Blues
TTITLE3=Ain't That Just Like A Woman
TTITLE4=World Of Contradictions
TTITLE5=Lightning
TTITLE6=Looking For Trouble
TTITLE7=Show Me
TTITLE8=Anything For Your Love
TTITLE9=Look Away
TTITLE10=Mother Earth
TTITLE11=It'll Be Me
EXTD=
EXTT0=
EXTT1=
EXTT2=
EXTT3=
EXTT4=
EXTT5=
EXTT6=
EXTT7=
EXTT8=
EXTT9=
EXTT10=
EXTT11=
PLAYORDER=
